<svg xmlns="http://www.w3.org/2000/svg" viewBox="0 0 512 512" width="100%" height="100%">
  <!-- Transparent background luxury brand identity -->
  
  <!-- Group to center the LD monogram precisely -->
  <g transform="translate(256, 256) scale(1.3)" stroke-linejoin="round" stroke-linecap="round">
    <!-- THE SERIF "L" -->
    <!-- Elegantly styled L shape with precise serif contours -->
    <path d="M -80, -110 
             L -15, -110 
             C -25, -95 -25, -80 -25, -60 
             L -25, 70 
             C -25, 80 -30, 95 -45, 95 
             L 50, 95 
             C 65, 95 75, 90 75, 75
             H 85
             V 110
             H -95
             V 75
             H -85
             C -70, 75 -65, 70 -65, 55
             L -65, -55
             C -65, -75 -70, -78 -85, -78
             H -95
             V -110
             Z" 
          fill="#dfb750" />
          
    <!-- THE SERIF "D" Crescent Bow -->
    <!-- Perfectly tapered crescent curved path starting at the top stem and ending on the bottom foot -->
    <path d="M -25, -90 
             C 35, -90 100, -50 100, 10
             C 100, 70 35, 110 -25, 110
             C 5, 110 75, 75 75, 10
             C 75, -50 5, -90 -25, -90 Z" 
          fill="#dfb750" />
  </g>
</svg>
